<svg id="Layer_1" data-name="Layer 1" xmlns="http://www.w3.org/2000/svg" viewBox="0 0 500 500" width="500" height="500" class="illustration"><rect x="396.87" y="197.62" width="40.6" height="81.19" fill="#ffd44d"></rect><rect x="396.87" y="148.68" width="40.6" height="81.19" fill="#0099f5"></rect><rect x="396.87" y="91.17" width="40.6" height="81.19" fill="#f0457d"></rect><rect x="106.61" y="48.91" width="297.15" height="406" rx="14.86" fill="#24285b"></rect><path d="M387.59,48.91H368.93V396.29a16.17,16.17,0,0,1-16.17,16.17H106.61v26.28a16.17,16.17,0,0,0,16.17,16.17H387.59a16.17,16.17,0,0,0,16.17-16.17V65.08A16.17,16.17,0,0,0,387.59,48.91Z" fill="#0f1438"></path><path d="M111.68,48.91h57.11a0,0,0,0,1,0,0v406a0,0,0,0,1,0,0H111.68a20.25,20.25,0,0,1-20.25-20.25V69.17A20.25,20.25,0,0,1,111.68,48.91Z" fill="#ffd44d"></path><path d="M91.43,412.46h77.36a0,0,0,0,1,0,0v42.45a0,0,0,0,1,0,0H109.64A18.21,18.21,0,0,1,91.43,436.7V412.46A0,0,0,0,1,91.43,412.46Z" fill="#f9bb0d"></path><rect x="59.96" y="88.36" width="62.94" height="22.47" rx="11.23" fill="#24285b"></rect><rect x="59.96" y="154.66" width="62.94" height="22.47" rx="11.23" fill="#24285b"></rect><rect x="59.96" y="220.96" width="62.94" height="22.47" rx="11.23" fill="#24285b"></rect><rect x="59.96" y="287.26" width="62.94" height="22.47" rx="11.23" fill="#24285b"></rect><rect x="59.96" y="353.55" width="62.94" height="22.47" rx="11.23" fill="#24285b"></rect><line x1="211.51" y1="250" x2="322.74" y2="250" fill="none" stroke="#fff" stroke-linecap="round" stroke-linejoin="round" stroke-width="10"></line><line x1="211.51" y1="293.68" x2="322.74" y2="293.68" fill="none" stroke="#fff" stroke-linecap="round" stroke-linejoin="round" stroke-width="10"></line><path d="M245.23,181.93h0c.52-.23,1-.44,1.59-.64l.42-.15,1.24-.43.48-.15,1.29-.37.41-.11c.57-.14,1.14-.28,1.72-.4h0c.56-.11,1.13-.21,1.7-.3l.51-.07,1.23-.16.59-.06,1.23-.09.53,0h.21v-1.68a21.78,21.78,0,0,1-8.76-8.47,16.42,16.42,0,0,1-1.16-4.1c-1.64.3-2.65-1.63-3.35-2.7s-2-6.46-2-6.56c-.39-2-.38-4.38,2.2-4.95a4,4,0,0,1,1.9,0c-.24-5.76-.23-10.62-.23-10.83,0-8.57,5.1-18,19.16-18s19.36,8.6,19.36,17.17c0,0,.27,5.35.23,11.63a4,4,0,0,1,2.11-.1c2.57.57,2.83,3,2.44,5,0,.11-1.4,5-2,6.57-.49,1.17-1.78,3.13-3.46,2.78a15.5,15.5,0,0,1-1.15,4,20.25,20.25,0,0,1-8.55,8.69v1.56c4.63.29,9.14,1,12.75,2.75.55.23,1.1.47,1.65.73a28.2,28.2,0,0,1,12,10.74,51.82,51.82,0,1,0-69.3-.51A28.37,28.37,0,0,1,245.23,181.93Z" fill="#0099f5"></path><path d="M301.49,193.28a28.2,28.2,0,0,0-12-10.74c-.55-.26-1.1-.5-1.65-.73-3.61-1.75-8.12-2.46-12.75-2.75V177.5a20.25,20.25,0,0,0,8.55-8.69,15.5,15.5,0,0,0,1.15-4c1.68.35,3-1.61,3.46-2.78.64-1.52,2-6.46,2-6.57.39-2,.13-4.44-2.44-5a4,4,0,0,0-2.11.1c0-6.28-.23-11.63-.23-11.63,0-8.57-5.31-17.17-19.36-17.17S247,131.13,247,139.7c0,.21,0,5.07.23,10.83a4,4,0,0,0-1.9,0c-2.58.57-2.59,3-2.2,4.95,0,.1,1.29,5.44,2,6.56s1.71,3,3.35,2.7a16.42,16.42,0,0,0,1.16,4.1,21.78,21.78,0,0,0,8.76,8.47V179h-.21l-.53,0-1.23.09-.59.06-1.23.16-.51.07c-.57.09-1.14.19-1.7.3h0c-.58.12-1.15.26-1.72.4l-.41.11-1.29.37-.48.15-1.24.43-.42.15c-.54.2-1.07.41-1.59.64h0a28.37,28.37,0,0,0-13,10.84,51.81,51.81,0,0,0,69.3.51Z" fill="#c1e6f4"></path></svg>