<?xml version="1.0" encoding="utf-8"?>

<!DOCTYPE svg PUBLIC "-//W3C//DTD SVG 1.1//EN" "http://www.w3.org/Graphics/SVG/1.1/DTD/svg11.dtd">
<svg version="1.1" id="Layer_1" xmlns="http://www.w3.org/2000/svg" xmlns:xlink="http://www.w3.org/1999/xlink" x="0px" y="0px"
	 viewBox="0 0 1879 1920" enable-background="new 0 0 1879 1920" xml:space="preserve">
<path fill="#FFFFFF" stroke="#FFFFFF" stroke-width="0.0938" d="M969.79,358.31c2.46-0.21,4.95-0.16,7.43,0.01
	C975.64,360.8,972.1,358.51,969.79,358.31z"/>
<path d="M1808.52,527.4199c-2.76-7.5399-8.9199-12.99-14.1602-18.7899c-21.5298-22.16-43.9099-43.49-67.1099-63.88
	c-10.6499-9.45-22.39-17.88-35.52-23.53c-20.77-8.9299-42.5-15.49-62.99-25.08c-15.46-7.25-27.77-19.28-40.4-30.4401
	c-20.14-16.48-38.59-34.95-59.49-50.5c-18.4-13.6799-37.97-25.6699-57.6799-37.34c-31.91-18.53-65.28-36.2899-101.9501-42.99
	c-13.96-2.5-28.01-5.0699-42.23-5.0699c-14.16-0.22-28.26,1.8499-42.03,4.99c-15.52,3.58-29.96,10.6399-43.76,18.4299
	c-15.2899,8.86-28.1899,21.0901-41.6599,32.39c-7.2201,6.16-14.9601,11.67-22.4401,17.51c-12.98,9.89-25.7,20.37-40.37,27.74
	c-10.88,6.08-23.09,10.6801-35.73,10.12c-28.39-0.38-56.65-3.65-85.01-4.55c-2.79-0.6199-5.95,2.5601-3.46,4.9301
	c4.8101,2.9401,10.85,2.7001,16.03,4.85c6.3799,1.22,13.1599,2.65,18.2599,6.97c4.8201,4.4301,8.5701,9.9401,11.5801,15.73
	c-2.76-1.1799-5.39-2.83-8.4-3.2799c-2.0601-0.35-4.3,1.26-4.28,3.42c-0.22,2.8699,1.26,5.47,2.1,8.1299
	c-3.7-2.98-7.0599-6.4199-11.22-8.78c-11.6-6.7-24.4301-11.5499-37.8099-12.9399c-15.22-1.76-30.53-2.99-45.8501-3.27
	c-2.4199,0.03-6.2999-0.1799-6.8599,2.9301c-0.5801,2.72,2.6599,3.5699,4.6599,4.11c16.6799,4.0601,33.89,6.55,49.8401,13.2
	c12.0999,4.9301,24.45,9.6101,35.6099,16.5c-25.1399-0.1599-50.03-5.0499-75.1699-5.02c-11.23,0.6801-22.45,2.1201-33.41,4.7101
	c-3.1,0.87-6.7999,1.59-8.5699,4.59c-0.51,1.5701,0.27,3.3,1.79,3.98c2.8799,1.41,6.0898,1.9301,9.1899,2.7001
	c18.9299,4.12,38.08,7.16,57.1,10.7899c-3.5,0.29-7.01,0.04-10.49-0.25C962.5901,409.79,948.45,410,934.5701,412.39
	c-20.01,3.2599-39.8901,7.39-59.4701,12.65c-2.15,0.75-4.6801,1.03-6.35,2.6699c-1.75,1.74-0.3301,5.1101,2.24,4.67
	c6.11-0.13,12.16-1.17,18.23-1.86c18.2-2.26,36.4399-4.63,54.8-4.8601c19.4099-0.4399,38.8999-1.24,58.26,0.53
	c-7.6101,2.9-15.67,4.42-23.52,6.52c-19.6799,4.8101-39.49,9.0901-59.14,14.03c-2.76,0.76-5.63,1.3201-8.1901,2.64
	c-2.0299,1.08-2.26,4.24-0.3398,5.5499c2.6399,2.16,5.9199,3.29,8.8599,4.9601c-7.02,4.15-14.3799,7.7-21.6399,11.39
	c-25.53,12.84-51.3901,24.99-76.6901,38.26c-2.41,1.58-5.84,2.52-6.88,5.47c-0.3201,3.39,3.8,3.6699,6.1899,2.97
	c12.01-2.59,23.6602-6.6599,35.7001-9.1799c7.74-1.98,15.83,0.7999,22.61,4.52c-4.52,3.6199-9.6799,6.3099-14.6499,9.25
	c-18.1101,10.3199-36.6501,19.8499-54.6501,30.3599c-2.1299,1.4501-4.99,2.53-5.84,5.1901c-0.67,2.77,2.75,3.9601,4.91,3.14
	c11.61-2.66,22.64-7.41,34.25-10.12c-4.51,5.51-10.65,9.5599-14.64,15.49c-1.5699,2.01-0.0399,5.24,2.5,5.2999
	c3.9601,0.01,7.52-2.0599,11.28-3.0399c-19.2201,18.2699-40.28,34.63-58.76,53.71c-1.7999,2.1901-5.03,4.89-3.4601,8.01
	c2.27,3,6.1901,0.59,8.8501-0.5499c22.01-11.3701,42.22-25.9401,64.24-37.25c-0.91,1.22-1.92,2.3799-2.98,3.47
	c-19.7,19.6699-41.0801,37.5699-60.8201,57.2c-1.8999,2.28-5.4199,4.72-4.21,8.1101c1.8999,2.8398,5.51,0.7899,7.8101-0.3801
	c16.75-9.6499,32.26-21.3199,49.0699-30.8799c-1.5,2.0999-3.17,4.0599-4.7999,6.0599c-28.3401,33.86-58.25,66.38-87.29,99.65
	C737.46,750.48,724.7,764.8,712.89,779.89c-8.3099,10.57-12.03,23.73-15.29,36.55c-2.5499,9.75-6.62,19.27-13.24,26.98
	c-7.42,8.67-16.85,15.24-25.93,22.03c-12.24,8.89-24.4,18.09-34.74,29.21c-15.51,16.73-29.13,35.07-42.46,53.55
	c-24.57,34.69-48.54,69.84-71.34,105.7299c-8.8,13.9501-17.74,27.8501-25.69,42.3201c-1.09,2.24-3.21,5.3199-0.83,7.5
	c1.73,1.42,3.82-0.0701,5.08-1.36c11.95-12.4601,21.64-27.12,34.92-38.28c1.88,1.3101,3.48,3.03,4.46,5.14
	c2.7,5.45,4.19,11.65,3.59,17.74c-1.34,7.0601-5.64,13.0601-9.53,18.9399c-5.55,7.7101-10.93,15.5901-17.49,22.5
	c-12.06,12.91-24.96,25.01-36.71,38.2101c-13.01,14.47-24.64,30.1-36.7,45.35c-22.43,28.66-47.96,54.67-72.71,81.3
	c-26.6,28.0499-53.08,56.24-80.57,83.4199c-10.9,11.1-24.32,19.1-36.84,28.15c-9.96,7.27-18.57,16.37-25.24,26.74
	c-10.31,16.15-18.55,33.54-25.83,51.24c-2.16,5.91-4.93,11.78-5.56,18.11c-0.37,3.0701,4.06,4.3501,5.79,2.01
	c6.71-7.03,12.21-15.12,18.07-22.85c17.33-23.26,33.61-47.3099,51.5099-70.14c0.2,3.89-0.17,7.88,0.8101,11.6901
	c0.56,2.22,2.93,4.13,5.2599,3.13c2.82-1.4,4.77-4.01,7.37-5.7301c-2.27,3.3501-4.86,6.4601-7.14,9.8101
	c-2.15,3.42-6.06,5.41-7.68,9.21c-2.61,6.99-8.2401,12.29-11.22,19.1c-0.86,1.65,0.19,4.2401,2.16,4.4401
	c1.7401,0.25,3.04-1.24,4.2401-2.23c4.39-4.29,8.51-8.85,12.64-13.37c23.21-25.42,45.79-51.51,70.76-75.24
	c6.31-5.73,12.61-11.7101,20.27-15.61c11.94-6.1801,24.88-10.15,37.89-13.39c9.36-2.25,18.82-4.3301,28.43-5.13
	c-1.26,2.8199-2.86,5.51-5.06,7.71c-14.1,14.88-28.72,29.25-43.51,43.45c-14.23,13.4601-28.55,26.89-43.99,38.9801
	c-14.56,11.3099-31.39,19.08-47.85,27.1699c-13.72,6.79-27.44,14.76-36.99,27.03c-10.14,13.05-17.67,27.96-23.74,43.29
	c-3.1,8.2899-6.07,16.7799-6.99,25.64c-0.3,3.35-0.17,7.8199,3.26,9.62c3.34,1.3899,6.71-0.8101,9.47-2.53
	c7.01-4.88,13.13-10.89,19.37-16.6801c13.6-12.77,26.89-26.0299,42.21-36.7899c17.46-12.29,35.41-23.87,53.57-35.1001
	c-6.68,6.2301-13.66,12.15-19.78,18.9601c-20.6,22.72-40.9,45.71-61.2,68.7c-23.97,27.41-48.2401,54.59-71.33,82.76
	c-1.49,2.29-5.09,5.14-2.78,8.03c2.45,2.61,5.32-1.09,7.24-2.6c29.41-28.5801,57.29-58.74,87.7-86.28
	c14.01-12.87,29.35-24.16,44.85-35.15c14.27-9.88,28.57-19.77,43.4-28.76c-2.46,2.9-5.46,5.29-8.01,8.13
	c-4.97,5.45-9.2,11.52-13.35,17.6c-12.03,17.9-22.92,36.53-34.18,54.91c-10.43,16.88-21.09,33.63-31.26,50.6801
	c-7.87,13.34-15.82,26.71-22.12,40.8899c-5.38,12.4601-6.53,26.25-6.95,39.67c0.11,7.38,0.14,14.99,2.65,22.03
	c2.22,5.98,9.12,8.23,14.98,8.22c6.64,0.01,13.45-0.24,19.78-2.46c13.58-4.63,26.41-11.14,39.8-16.2101
	c2.58-1.2699,6.98,1.3,5.67,4.4c-1.74,9.02-5.29,17.8201-5.23,27.12c-0.14,3.15,2.83,5.78,5.96,5.15c5.01-1.01,9-4.5,13.41-6.86
	c2.95-1.71,6.68-3.8101,10.01-1.8c4.71,2.52,8.58,8.04,14.52,7.1001c4.82-1.5,8.31-5.4701,12.16-8.54
	c20.87-18.77,40.52-38.86,59.68-59.36c13.64-14.3101,24.88-30.64,36.16-46.8c4.05-5.59,7.7-11.54,12.51-16.51
	c2.82-2.58,6.74-0.58,9.99-0.1899c4.18,1.1599,8.67-0.14,11.85-3c7.33-6.39,12.98-14.4,19.27-21.75
	c7.41-8.67,14.13-17.88,21.09-26.89c23.09-30.4301,46.19-60.9,71.4-89.64c25.7-29.96,51.82-59.5699,76.96-90
	c10.5701-12.9301,21.1799-25.92,29.74-40.3101c11.2-18.34,20.49-37.74,30.0601-56.96c3.79-7.89,8.58-15.23,13.3199-22.5699
	c6.3099-9.78,14.73-17.92,23.0399-25.98c4.51-4.14,8.8601-8.5601,14.0601-11.8501c-2.4199,6.9501-5.6899,13.5701-8.59,20.3301
	c-17.0699,37.7799-34.7999,75.26-52.02,112.98c-8.35,18.45-16.89,36.85-24.3099,55.7c-1.1001,3.35-3.02,6.8-2.27,10.4301
	c1.4099,2.71,4.8999,1.5599,6.54-0.26c5.76-5.61,10.48-12.17,15.3699-18.53c11.73-15.4199,22.6801-31.4399,34.0801-47.11
	c-0.53,2.9301-2.52,5.74-1.76,8.8c1.3999,3.3199,5.62,3.5,8.6899,3.0399c7.03-1.1499,13.8-4.02,19.6201-8.12
	c5.6799-4.02,8.52-10.6,11.2899-16.73c3.29-7.59,8.4301-14.12,13.09-20.88c6.8601-9.9,14-19.6799,19.6801-30.34
	c4.3099-7.96,5.4601-17.0701,6.83-25.89c0.72-3.65,1.04-7.73,3.65-10.62c3.9501-4.11,10.08-4.9301,14.24-8.77
	c4.66-3.97,6.9801-9.75,10.2301-14.77c9.7799-15.5299,19.1399-31.33,29.5499-46.45c2.9601-4.49,8.25-8.33,13.84-7.55
	c4.8301,2,9,5.26,13.4301,8.01c14.85,10.01,29.58,20.27,43.6801,31.34c3.0299,1.5801,1.5499,5.8501-0.9202,7.1901
	c-6.4399,3.73-13.3799,6.49-19.8799,10.11c-8.25,4.76-18.26,6.87-24.8401,14.21c-8.1599,8.4701-9.8899,20.53-13.8599,31.13
	c-3.1201,8.7001-9.05,16.8301-8.6301,26.4501c-0.0699,6.35,3.99,11.62,7.5601,16.5c9.0701,11.7899,19.27,22.73,30.38,32.62
	c2.17,1.51,4.5699,4.51,7.51,3.38c2.46-0.98,1.97-4.0801,1.0499-5.98c-6.02-13.5901-14.6499-25.91-20.0499-39.77
	c-2.11-7.8401-1.61-16.52,1.3199-24.0801c2.28-5.26,9-3.97,13.54-5.3099c8.1599-2.4301,17.61-1.9501,24.53-7.5601
	c4.47-3.5299,5.1399-9.49,6.47-14.63c1.38-5.96,7.3101-8.83,11.9299-12c15.14-9.3099,30.8401-17.8099,47.26-24.6599
	c12.0601-4.8501,24.9401-7.02,37.66-9.3501c14.0601-2.5,28.16-4.7799,42.3201-6.61c8.49-0.99,17.0099-2.26,25.58-1.88
	c3.58,0.0601,5.65,3.49,6.9,6.42c2.24,5.4,4.0599,11.33,8.61,15.33c5.5699,4.92,11.96,8.79,18.1699,12.8501
	c16.2001,10.0199,32.5701,19.8999,49.75,28.1799c12.03,5.3101,24.8101,8.5601,37.2201,12.8201c4.6799,1.6599,9.6,3.2899,13.25,6.86
	c-4.75,3.33-10.6,4.3099-16.0801,5.84c-21.5599,5.38-43.62,8.95-64.6799,16.1801c-7.72,2.86-16.02,6-21.1,12.86
	c-10.5801,13.5499-16.2001,30.87-15.9601,48.0299c0.37,8.3601,2.3,17.3101,8.4,23.4601c7.7,7.89,17.74,12.97,27.8,17.1799
	c6.6799,2.5601,13.51,5.2201,20.72,5.64c2.12,0.2101,4.46-1.09,4.5699-3.39c-0.0499-2.49-1.86-4.3999-3.3199-6.2
	c-7.05-7.9401-15.17-14.96-21.41-23.6c-1.9-2.7101-3.76-5.6901-3.85-9.0801c-0.72-11.2899,5.3199-22.23,13.99-29.1499
	c6.3-3.9,13.51-5.9601,20.47-8.3301c19.9401-6.1899,40.23-11.28,60.74-15.12c10.28-1.99,20.7001-0.04,30.92,1.34
	c5.26,0.55,11.6,1.16,15.59-3.08c4.02-3.5599,4.73-9.9399,9.5701-12.6c6.6,0.41,12.9399,2.6899,19.35,4.23
	c33.41,9.2,66.3199,20.11,99.6899,29.42c3.27,1.1799,7.27,1.0599,9.5801-1.89c1.74-1.3201,3.1-5.02,5.73-3.55
	c7.55,3.91,14.02,9.67,21.72,13.35c2.13,1.28,5.6901,0.8501,6.3-1.9399c0.4199-3.48-1.17-6.79-2.4601-9.91
	c-4.1299-8.97-9.5-17.51-16.6599-24.35c-4.9601-4.86-11.87-6.67-18.35-8.52c-19.3-5.1699-39.27-7.38-58.55-12.61
	c-7.1801-1.61-11.46-8.12-15.13-13.92c-2.52-3.75-4.29-8.26-8.0601-10.96c-4.58-3-10.23,1.8101-14.6599-1.3099
	c-4.4501-3.14-8.2001-7.13-12.48-10.4701c-6.53-5.48-14.3-9.12-21.66-13.2899c-28.05-15.3501-56.3101-30.3-84.5-45.38
	c9.52-10.6901,19.9399-21.36,24.77-35.15c5.77-15.96,9.8099-32.73,18.5299-47.46c11.1801-19.26,27.66-34.6801,39.64-53.4
	c7.7101-11.5901,12.87-24.5801,19.0701-36.98c8.76-17.3,21.88-31.8301,34.6699-46.2001c5.8501-6.05,11.3-12.64,18.12-17.62
	c-0.3099,4.88-1.2599,9.77-0.7899,14.68c0.09,2.53,3.2899,4.7401,5.38,2.69c3.59-3.61,5.84-8.3,8.62-12.52
	c6.1699-10.02,11.95-20.29,18.63-29.98c-3.28,14.07-8.22,27.69-11.86,41.66c-0.65,2.44-1.5601,5.79,1.2999,7.23
	c2.92,0.64,4.12-2.58,5.29-4.58c9.6-19.59,17.4-40.02,27.16-59.53c-0.3501,8.66-1.5901,17.3-1.4801,25.97
	c-0.24,3.44,5.0601,5.07,6.0601,1.37c7.28-19.5099,11.41-40.09,18.42-59.68c0.6699,4.68,0.8999,9.43,1.89,14.07
	c0.25,1.58,1.5399,3.34,3.37,2.93c2.88-0.34,3.0399-3.74,3.6599-5.93c3.38-17.71,5.4301-35.66,6.5901-53.65
	c0.58-21.68-1.7201-43.29-2.9601-64.91c-0.5499-12.35-2.11-24.75-0.96-37.11c6.05,0.47,11.98,4.66,18.08,2.26
	c3.62-1.87,5.6801-5.66,8.13-8.77c12.3-17.71,23.2001-36.3499,34.11-54.94c7.42-6.8301,15.5801-13.39,20.37-22.49
	c3.0801-5.8301,3.6001-12.55,3.6901-19.02c-0.23-14.37-2.89-28.5701-3.38-42.9199c0.05-12.03-0.6901-24.05-0.91-36.0701
	c0.14-6.51-0.1-13.51,3.37-19.3101c4.5-8.6799,13.51-14.3899,23.01-16.0699c11.2001-2.0299,22.6901-1.7001,33.9401-0.24
	c8.21,1.27,15.8999,4.58,23.7,7.2899c32.7101,12.2101,64.7799,26.02,97.33,38.6301c2.9802,0.96,5.9299,2.6399,9.1501,2.5699
	c3.0898-0.67,2.5298-4.6901,0.52-6.2799c-6.8201-6.9202-14.9902-12.3301-22.25-18.76c-13.6602-12.0801-27.29-24.26-42.2202-34.76
	c-14.3999-10.47-30.83-17.5901-46.8398-25.1801c-18.5801-8.7301-37.54-16.6901-55.79-26.1c-7.77-3.2001-10.8-12.16-11.46-19.89
	c13.6599,3.83,26.7999,9.2699,40.0299,14.34c22.29,8.8201,44.48,17.91,66.42,27.5701c17.74,7.8199,34.24,18.0599,50.6899,28.24
	c9.5601,5.96,19.8201,10.7,29.45,16.5599c2.8,1.9501,6.52,3.84,7.0701,7.59c1.0601,4.8601-0.5598,9.76-0.1301,14.6201
	c0.2402,2.58,4.2002,3.08,5.52,1.01C1814.3701,553.1799,1813.03,539,1808.52,527.4199z M969.79,358.3101
	c2.46-0.2101,4.95-0.1602,7.4299,0.01C975.64,360.8,972.1,358.51,969.79,358.3101z M496.04,1085.87c1.92-2.74,2.81-6.86,6.2-8.09
	C501,1081.01,498.32,1083.37,496.04,1085.87z M1431.1,978.42C1434.39,978.58,1429.54,981.42,1431.1,978.42L1431.1,978.42z
	 M1458.12,967.96c1.22-3.45,0.96-8.02,4.03-10.4C1461.6899,961.3,1459.77,964.64,1458.12,967.96z M1485.83,940.6
	c-1.33-0.2599-1.5399-1.0099-0.6599-2.24C1486.46,938.59,1486.6801,939.34,1485.83,940.6z"/>
<path fill="#B7B7B7" stroke="#B7B7B7" stroke-width="0.0938" d="M1485.17,938.36c1.2899,0.23,1.51,0.98,0.6599,2.24
	C1484.5,940.34,1484.29,939.59,1485.17,938.36z"/>
<path fill="#FFFFFF" stroke="#FFFFFF" stroke-width="0.0938" d="M1458.12,967.96c1.22-3.45,0.96-8.02,4.03-10.4
	C1461.6899,961.3,1459.77,964.64,1458.12,967.96z"/>
<path fill="#818181" stroke="#818181" stroke-width="0.0938" d="M1431.1,978.42C1434.39,978.58,1429.54,981.42,1431.1,978.42z"/>
<path fill="#FFFFFF" stroke="#FFFFFF" stroke-width="0.0938" d="M496.04,1085.87c1.92-2.74,2.81-6.86,6.2-8.09
	C501,1081.01,498.32,1083.37,496.04,1085.87z"/>
<path fill="#9B9B9B" stroke="#9B9B9B" stroke-width="0.0938" d="M1232.2,1422.28C1232.76,1422.85,1232.76,1422.85,1232.2,1422.28z"
	/>
</svg>
