<svg xmlns="http://www.w3.org/2000/svg" viewBox="0 0 400 300" width="406" height="306" class="illustration styles_illustrationTablet__1DWOa"><g id="_517_information_flow_outline" data-name="#517_information_flow_outline"><path d="M314.9,192.58a42.9,42.9,0,0,1-24.56,38.8,41.85,41.85,0,0,1-8,2.84A42.42,42.42,0,0,1,272,235.49a42.91,42.91,0,1,1,42.91-42.91Z" fill="#68e1fd"></path><path d="M272,236.49a43.8,43.8,0,0,1-10.47-1.26,42.76,42.76,0,0,1-8.16-2.88,43.91,43.91,0,1,1,37.41-.07,42.52,42.52,0,0,1-8.15,2.91A43.83,43.83,0,0,1,272,236.49Zm0-85.82a41.91,41.91,0,1,0,10.14,82.58,40.68,40.68,0,0,0,7.78-2.77A41.92,41.92,0,0,0,272,150.67Z" fill="#093f68"></path><path d="M290.34,224v7.37a41.85,41.85,0,0,1-8,2.84A42.42,42.42,0,0,1,272,235.49a42.85,42.85,0,0,1-18.21-4V224a12.38,12.38,0,0,1,12.38-12.37H278A12.37,12.37,0,0,1,290.34,224Z" fill="#f56132"></path><path d="M272,236.49a43.8,43.8,0,0,1-10.47-1.26,42.76,42.76,0,0,1-8.16-2.88,1,1,0,0,1-.58-.9V224a13.39,13.39,0,0,1,13.38-13.37H278A13.39,13.39,0,0,1,291.34,224v7.37a1,1,0,0,1-.57.9,42.52,42.52,0,0,1-8.15,2.91A43.83,43.83,0,0,1,272,236.49Zm-17.21-5.68a42,42,0,0,0,27.35,2.44,40.49,40.49,0,0,0,7.21-2.51V224A11.38,11.38,0,0,0,278,212.64H266.16A11.39,11.39,0,0,0,254.78,224Zm35.56.57h0Z" fill="#093f68"></path><polygon points="269.12 212.86 272.48 228.94 275.33 212.86 269.12 212.86" fill="#093f68"></polygon><path d="M272.48,229.93a1,1,0,0,1-1-.79l-3.36-16.08a1,1,0,0,1,1-1.2h6.22a1,1,0,0,1,1,1.17l-2.85,16.08a1,1,0,0,1-1,.82Zm-2.13-16.07,2,9.81,1.74-9.81Z" fill="#093f68"></path><path d="M270.51,161.26a14.88,14.88,0,0,1,2.31-.18c3.58,0,7.22-.09,10.48,1.51a19.81,19.81,0,0,1,11,17.66l-.75,14.64H250.76a9,9,0,0,1,.17-2.73,11.88,11.88,0,0,0-.42-2.83,40.31,40.31,0,0,1-.86-7.26A28,28,0,0,1,252,170.91c.87-2.12,1.89-4.31,3.76-5.63s4.84-1.37,6.17.5A14.88,14.88,0,0,1,270.51,161.26Z" fill="#725858"></path><path d="M293.58,195.89h-41c-2.4,0-2.81,0-2.84-.86a5.31,5.31,0,0,1,.06-2.11,5.89,5.89,0,0,0,.11-.8,7.22,7.22,0,0,0-.27-2c0-.21-.09-.42-.13-.63a40.26,40.26,0,0,1-.88-7.44,29.16,29.16,0,0,1,2.42-11.56c.89-2.15,2-4.58,4.12-6.07a5.9,5.9,0,0,1,6.75-.11,15.89,15.89,0,0,1,8.41-4.07h0a21.06,21.06,0,0,1,2.47-.2h.64c3.44,0,7,0,10.28,1.61a20.78,20.78,0,0,1,11.6,18.56s0,0-.76,14.69A1,1,0,0,1,293.58,195.89Zm-41.88-2h40.94c.16-3.22.69-13.56.7-13.69a18.74,18.74,0,0,0-10.47-16.71c-2.87-1.4-6.05-1.4-9.41-1.41h-.64a20,20,0,0,0-2.16.17h0a13.84,13.84,0,0,0-8,4.21,1,1,0,0,1-.79.32,1,1,0,0,1-.75-.42c-1-1.38-3.34-1.28-4.78-.27-1.67,1.18-2.6,3.22-3.42,5.2a27.27,27.27,0,0,0-2.27,10.77,37.91,37.91,0,0,0,.84,7.07c0,.2.08.4.13.6a9.28,9.28,0,0,1,.31,2.47,7.31,7.31,0,0,1-.14,1.06C251.76,193.48,251.72,193.69,251.7,193.89Z" fill="#093f68"></path><path d="M269.12,209.28h6.22a0,0,0,0,1,0,0v3.58a2.64,2.64,0,0,1-2.64,2.64h-.94a2.64,2.64,0,0,1-2.64-2.64v-3.58A0,0,0,0,1,269.12,209.28Z" fill="#ffc9b0"></path><path d="M272.7,216.5h-.94a3.65,3.65,0,0,1-3.64-3.64v-3.58a1,1,0,0,1,1-1h6.22a1,1,0,0,1,1,1v3.58A3.65,3.65,0,0,1,272.7,216.5Zm-2.58-6.22v2.58a1.64,1.64,0,0,0,1.64,1.64h.94a1.65,1.65,0,0,0,1.64-1.64v-2.58Z" fill="#093f68"></path><ellipse cx="255.48" cy="193.12" rx="5.69" ry="5.21" fill="#ffc9b0"></ellipse><path d="M255.48,199.33a6.22,6.22,0,1,1,6.69-6.21A6.47,6.47,0,0,1,255.48,199.33Zm0-10.41a4.23,4.23,0,1,0,4.69,4.2A4.48,4.48,0,0,0,255.48,188.92Z" fill="#093f68"></path><ellipse cx="288.65" cy="193.12" rx="5.69" ry="5.21" fill="#ffc9b0"></ellipse><path d="M288.65,199.33a6.22,6.22,0,1,1,6.69-6.21A6.47,6.47,0,0,1,288.65,199.33Zm0-10.41a4.23,4.23,0,1,0,4.69,4.2A4.47,4.47,0,0,0,288.65,188.92Z" fill="#093f68"></path><path d="M272.23,210.09h0A18.23,18.23,0,0,1,254,191.87v-9.81s4.59-2.62,5.95-6.74c0,0,7,8,13.76,7.42a155.19,155.19,0,0,0,16.74-2.33v11.46A18.22,18.22,0,0,1,272.23,210.09Z" fill="#ffc9b0"></path><path d="M272.23,211.09A19.25,19.25,0,0,1,253,191.87v-9.81a1,1,0,0,1,.51-.87s4.27-2.48,5.49-6.18a1,1,0,0,1,.75-.67,1,1,0,0,1,.95.32c.07.08,6.76,7.58,12.93,7.09a157.07,157.07,0,0,0,16.62-2.32,1,1,0,0,1,.83.2,1,1,0,0,1,.37.78v11.46A19.24,19.24,0,0,1,272.23,211.09ZM255,182.62v9.25a17.23,17.23,0,0,0,34.45,0V181.62c-2.57.48-8.93,1.58-15.66,2.12-5.63.45-11.22-4.38-13.51-6.64A16.16,16.16,0,0,1,255,182.62Z" fill="#093f68"></path><path d="M272.13,195.89a11.16,11.16,0,0,1-1.72-.14,1,1,0,0,1,.35-2,8.12,8.12,0,0,0,1.92.09,15.07,15.07,0,0,0-1.34-3.37,1,1,0,1,1,1.77-.92c.95,1.81,2,4.21,1.44,5.37a1.36,1.36,0,0,1-.92.78A6.32,6.32,0,0,1,272.13,195.89Z" fill="#093f68"></path><path d="M261.75,235.26a1,1,0,0,1-1-1v-9.21a1,1,0,0,1,2,0v9.21A1,1,0,0,1,261.75,235.26Z" fill="#093f68"></path><path d="M282.38,235.22a1,1,0,0,1-1-1v-9.17a1,1,0,0,1,2,0v9.17A1,1,0,0,1,282.38,235.22Z" fill="#093f68"></path><path d="M170.91,107.42a42.9,42.9,0,0,1-24.54,38.79A42.86,42.86,0,0,1,128,150.33a42.91,42.91,0,1,1,42.9-42.91Z" fill="#68e1fd"></path><path d="M128,151.33A43.9,43.9,0,0,1,108.92,147a43.9,43.9,0,1,1,37.88.14A44.14,44.14,0,0,1,128,151.33Zm0-85.82a41.92,41.92,0,1,0,41.9,41.91A42,42,0,0,0,128,65.51Z" fill="#093f68"></path><path d="M120.65,80.43s-4.15-1.45-8.08,3.64c-3.68,4.76-3.48,11.58-3.67,17.26a58.54,58.54,0,0,1-3.13,16.76c-1.66,5.18.75,10.81,4.86,13.93a20.86,20.86,0,0,0,11.21,3.82c3.32.27,6.53-.62,9.78-.25A17.41,17.41,0,0,0,149.08,127a11.16,11.16,0,0,0,1.66-4.76,16.88,16.88,0,0,0-.63-4.94A84,84,0,0,1,148,99.69,29.25,29.25,0,0,0,144.86,86C139.86,76.75,126.45,72.51,120.65,80.43Z" fill="#725858"></path><path d="M123.16,136.89c-.46,0-.93,0-1.4,0-4.85-.39-8.69-1.7-11.74-4-4.74-3.6-6.88-9.78-5.2-15a57.21,57.21,0,0,0,3.08-16.49c0-.54,0-1.09,0-1.64.14-5.45.3-11.64,3.83-16.21,3.37-4.36,7-4.37,8.47-4.13a11.47,11.47,0,0,1,10-4,19.91,19.91,0,0,1,15.48,10.21A30.23,30.23,0,0,1,149,99.68a83.22,83.22,0,0,0,2.06,17.37l.08.35a16.74,16.74,0,0,1,.57,4.88,12,12,0,0,1-1.8,5.18,18.35,18.35,0,0,1-18.43,9.12,24.08,24.08,0,0,0-4.86.11C125.51,136.79,124.35,136.89,123.16,136.89Zm-4-55.66c-1.31,0-3.58.51-5.85,3.45-3.13,4-3.28,9.88-3.41,15,0,.56,0,1.11,0,1.65a58.86,58.86,0,0,1-3.18,17c-1.42,4.45.43,9.73,4.51,12.83a19.87,19.87,0,0,0,10.69,3.62,26.83,26.83,0,0,0,4.55-.15,26.39,26.39,0,0,1,5.27-.11,16.42,16.42,0,0,0,16.48-8.14,10.12,10.12,0,0,0,1.53-4.33,15.07,15.07,0,0,0-.54-4.29l-.07-.35A84.57,84.57,0,0,1,147,99.69,28.2,28.2,0,0,0,144,86.47a18.1,18.1,0,0,0-13.86-9.17A9.53,9.53,0,0,0,121.45,81a1,1,0,0,1-1.13.36A3.54,3.54,0,0,0,119.21,81.23Z" fill="#093f68"></path><path d="M146.37,138.66v7.55A42.86,42.86,0,0,1,128,150.33a43,43,0,0,1-18.66-4.25v-7.42a12.53,12.53,0,0,1,12.53-12.53h12a12.52,12.52,0,0,1,12.53,12.53Z" fill="#ffbc0e"></path><path d="M128,151.33A43.9,43.9,0,0,1,108.92,147a1,1,0,0,1-.57-.9v-7.42a13.53,13.53,0,0,1,13.53-13.53h12a13.51,13.51,0,0,1,13.53,13.53v7.55a1,1,0,0,1-.57.91A44.14,44.14,0,0,1,128,151.33Zm-17.66-5.89a41.34,41.34,0,0,0,7.31,2.6,42.16,42.16,0,0,0,20.4.07,41.36,41.36,0,0,0,7.31-2.54v-6.91a11.51,11.51,0,0,0-11.53-11.53h-12a11.51,11.51,0,0,0-11.53,11.53Zm36,.77h0Z" fill="#093f68"></path><polygon points="127.86 144.19 125.62 127.19 131.35 127.19 127.86 144.19" fill="#093f68"></polygon><path d="M127.86,145.19h0a1,1,0,0,1-.95-.87l-2.24-17a1,1,0,0,1,1-1.13h5.73a1,1,0,0,1,.77.36,1,1,0,0,1,.21.84l-3.49,17A1,1,0,0,1,127.86,145.19Zm-1.1-17,1.31,10,2.05-10Z" fill="#093f68"></path><path d="M117.42,150a1,1,0,0,1-1-1v-9.3a1,1,0,0,1,2,0V149A1,1,0,0,1,117.42,150Z" fill="#093f68"></path><path d="M138.31,150.08a1,1,0,0,1-1-1v-9.37a1,1,0,1,1,2,0v9.37A1,1,0,0,1,138.31,150.08Z" fill="#093f68"></path><path d="M125.62,124.32h5.73a0,0,0,0,1,0,0v3.3a2.43,2.43,0,0,1-2.43,2.43H128a2.43,2.43,0,0,1-2.43-2.43v-3.3a0,0,0,0,1,0,0Z" fill="#ffc9b0"></path><path d="M128.91,131.05h-.86a3.44,3.44,0,0,1-3.43-3.43v-3.3a1,1,0,0,1,1-1h5.73a1,1,0,0,1,1,1v3.3A3.44,3.44,0,0,1,128.91,131.05Zm-2.29-5.73v2.3a1.43,1.43,0,0,0,1.43,1.43h.86a1.44,1.44,0,0,0,1.44-1.43v-2.3Z" fill="#093f68"></path><ellipse cx="112.11" cy="109.44" rx="5.57" ry="4.8" fill="#ffc9b0"></ellipse><path d="M112.11,115.24c-3.62,0-6.56-2.6-6.56-5.8s2.94-5.79,6.56-5.79,6.57,2.6,6.57,5.79S115.73,115.24,112.11,115.24Zm0-9.59c-2.52,0-4.56,1.7-4.56,3.79s2,3.8,4.56,3.8,4.57-1.71,4.57-3.8S114.63,105.65,112.11,105.65Z" fill="#093f68"></path><ellipse cx="144.56" cy="109.44" rx="5.57" ry="4.8" fill="#ffc9b0"></ellipse><path d="M144.56,115.24c-3.62,0-6.57-2.6-6.57-5.8s2.95-5.79,6.57-5.79,6.56,2.6,6.56,5.79S148.18,115.24,144.56,115.24Zm0-9.59c-2.52,0-4.57,1.7-4.57,3.79s2,3.8,4.57,3.8,4.56-1.71,4.56-3.8S147.07,105.65,144.56,105.65Z" fill="#093f68"></path><path d="M138.69,95.22l-5.43-7s-1.22,4.3-2,7l-8.56,0-2-6.23-2.37,6.22-6.64,0v13.15a16.78,16.78,0,0,0,16.78,16.78h0a16.79,16.79,0,0,0,16.79-16.78V95.24Z" fill="#ffc9b0"></path><path d="M128.48,126.07a17.8,17.8,0,0,1-17.78-17.78V95.14a1,1,0,0,1,1-1h6l2.13-5.57a1,1,0,0,1,1-.64,1,1,0,0,1,.92.69l1.8,5.54,7.07,0c.75-2.65,1.77-6.23,1.77-6.23a1,1,0,0,1,.77-.71,1,1,0,0,1,1,.37l5.13,6.6,6.09,0a1,1,0,0,1,1,1v13.05A17.81,17.81,0,0,1,128.48,126.07ZM112.7,96.14v12.15a15.79,15.79,0,0,0,31.57,0V96.23h-5.58a1,1,0,0,1-.79-.39l-4.22-5.42-1.43,5.06a1,1,0,0,1-1,.72h0l-8.56,0a1,1,0,0,1-.94-.69l-1.15-3.54-1.36,3.57a1,1,0,0,1-.93.65h0Z" fill="#093f68"></path><path d="M128.4,112.07a10,10,0,0,1-1.6-.13,1,1,0,0,1-.81-1.16,1,1,0,0,1,1.16-.81,7.5,7.5,0,0,0,1.66.09,15.53,15.53,0,0,0-1.21-3,1,1,0,0,1,.42-1.35,1,1,0,0,1,1.35.43c.88,1.68,1.82,3.92,1.33,5a1.34,1.34,0,0,1-.91.76A6,6,0,0,1,128.4,112.07Z" fill="#093f68"></path><path d="M272.23,138.19a2.5,2.5,0,0,1-2.5-2.5V119.85a23.34,23.34,0,0,0-23.32-23.31h-69a2.5,2.5,0,0,1,0-5h69a28.35,28.35,0,0,1,28.32,28.31v15.84A2.5,2.5,0,0,1,272.23,138.19Z" fill="#093f68"></path><polygon points="263.12 131.61 281.42 131.61 272.22 141.76 263.12 131.61" fill="#093f68"></polygon><path d="M272.22,142.76a.86.86,0,0,1-.74-.34l-9.11-10.14a1,1,0,0,1,.75-1.67h18.3a1,1,0,0,1,.74,1.67L273,142.43A1,1,0,0,1,272.22,142.76Zm-6.86-10.15,6.87,7.65,6.93-7.65Z" fill="#093f68"></path><path d="M221.46,209.28h-69A28.34,28.34,0,0,1,124.11,181V165.13a2.5,2.5,0,0,1,5,0V181a23.34,23.34,0,0,0,23.32,23.31h69a2.5,2.5,0,0,1,0,5Z" fill="#093f68"></path><polygon points="135.72 169.21 117.42 169.21 126.61 159.06 135.72 169.21" fill="#093f68"></polygon><path d="M135.72,170.21h-18.3a1,1,0,0,1-.91-.6,1,1,0,0,1,.17-1.07l9.19-10.15a1,1,0,0,1,.75-.33h0a1,1,0,0,1,.74.33l9.1,10.15a1,1,0,0,1,.17,1.07A1,1,0,0,1,135.72,170.21Zm-16-2h13.8l-6.87-7.65Z" fill="#093f68"></path><circle cx="204.23" cy="149.4" r="17.23" fill="#fff"></circle><path d="M204.23,167.62a18.23,18.23,0,1,1,18.23-18.22A18.24,18.24,0,0,1,204.23,167.62Zm0-34.45a16.23,16.23,0,1,0,16.23,16.23A16.25,16.25,0,0,0,204.23,133.17Z" fill="#093f68"></path><path d="M205.16,157.82a1,1,0,0,1-1-1V146.7h-2.8a1,1,0,0,1,0-2h3.8a1,1,0,0,1,1,1v11.12A1,1,0,0,1,205.16,157.82Z" fill="#093f68"></path><path d="M209.1,158.39h-7.74a1,1,0,0,1,0-2h7.74a1,1,0,1,1,0,2Z" fill="#093f68"></path><circle cx="204.56" cy="141.54" r="2.13" fill="#093f68"></circle></g></svg>