<svg xmlns="http://www.w3.org/2000/svg" viewBox="0 0 400 300" width="406" height="306" class="illustration styles_illustrationTablet__1DWOa"><g id="_577_team_work_outline" data-name="#577_team_work_outline"><path d="M146.38,200.29l3.34,1.94s3-2,4.93-1.94,6.33.14,5.21,3.7-2,6.9-5.07,8.61-14,0-14,0S142.48,201.06,146.38,200.29Z" fill="#ffc9b0"></path><path d="M149.68,214.35a65,65,0,0,1-9-.77,1,1,0,0,1-.83-1.13c.29-2,2-12.28,6.36-13.14a.93.93,0,0,1,.69.12l2.82,1.63c1-.63,3.22-1.86,5-1.77h.14c1.67.06,4.47.16,5.68,1.87a3.38,3.38,0,0,1,.31,3.12l-.24.77c-1.07,3.42-2.08,6.64-5.3,8.41C154.06,214.14,151.94,214.35,149.68,214.35Zm-7.72-2.6c4.17.58,10.47,1,12.35,0,2.51-1.39,3.36-4.1,4.35-7.25l.24-.78c.29-.91,0-1.25,0-1.36-.64-.91-3-1-4.12-1h-.14c-1.19-.07-3.29,1.06-4.33,1.77a1,1,0,0,1-1.06,0l-3-1.71C144.34,202.26,142.69,207.57,142,211.75Z" fill="#093f68"></path><path d="M146.38,200.29a38,38,0,0,0-5.56,12.31,40,40,0,0,1-15.35-9.31,17.44,17.44,0,0,1-4.16-5.65c-2.07-5,1.27-18.91,8.27-13.68,3,2.21,4.49,6.89,7.08,9.62A28.16,28.16,0,0,0,146.38,200.29Z" fill="#68e1fd"></path><path d="M140.82,213.6a1.19,1.19,0,0,1-.32,0A41.15,41.15,0,0,1,124.77,204a18,18,0,0,1-4.38-6c-1.65-4-.26-12.37,3.37-15.19,1.09-.85,3.38-1.94,6.42.33,1.84,1.37,3.13,3.53,4.37,5.62a23.48,23.48,0,0,0,2.84,4.11,27,27,0,0,0,9.37,6.47,1,1,0,0,1,.58.64,1,1,0,0,1-.13.86,36.77,36.77,0,0,0-5.42,12,1,1,0,0,1-.49.63A1,1,0,0,1,140.82,213.6Zm-14.2-29.8a2.55,2.55,0,0,0-1.63.61c-2.83,2.2-4.08,9.65-2.76,12.84a16.14,16.14,0,0,0,3.94,5.33,39,39,0,0,0,14,8.72,38.71,38.71,0,0,1,4.76-10.57,29.31,29.31,0,0,1-8.95-6.46,25.67,25.67,0,0,1-3.11-4.46c-1.14-1.93-2.33-3.92-3.85-5.05A4,4,0,0,0,126.62,183.8Z" fill="#093f68"></path><path d="M155.56,202.33a11.28,11.28,0,0,1-2,6.7c-.29.43-.72.88-1.24.82s-.86-.68-1-1.23a9.42,9.42,0,0,1,.36-3.9,8.38,8.38,0,0,1-3.52,3.92,1.61,1.61,0,0,1-.73.26.65.65,0,0,1-.64-.35" fill="#ffc9b0"></path><path d="M152.41,210.86l-.22,0a2.27,2.27,0,0,1-1.83-2c0-.15-.05-.3-.07-.45a9.28,9.28,0,0,1-1.61,1.16,2.62,2.62,0,0,1-1.18.39,1.65,1.65,0,0,1-1.62-1,1,1,0,0,1,1.65-1.07l.16-.09a7.37,7.37,0,0,0,3.09-3.44,1,1,0,0,1,1.23-.56,1,1,0,0,1,.66,1.18,8.75,8.75,0,0,0-.35,3.48,1.36,1.36,0,0,0,.12.36,1.3,1.3,0,0,0,.28-.33,10.32,10.32,0,0,0,1.84-6.11,1,1,0,0,1,1-1,1,1,0,0,1,1,1,12.39,12.39,0,0,1-2.2,7.31A2.43,2.43,0,0,1,152.41,210.86Zm.1-2h0Zm-4.78-.72Z" fill="#093f68"></path><path d="M249.41,204l-3.34,1.94s-3-2-4.93-1.94-6.33.14-5.21,3.7,2,6.9,5.07,8.6,14,0,14,0S253.31,204.76,249.41,204Z" fill="#ffc9b0"></path><path d="M246.11,218.05a13,13,0,0,1-5.59-.88c-3.23-1.77-4.23-5-5.3-8.41L235,208a3.41,3.41,0,0,1,.3-3.12c1.22-1.72,4-1.82,5.69-1.88h.13c1.77-.08,4,1.14,5,1.77l2.81-1.64a1,1,0,0,1,.7-.11c4.38.86,6.07,11.1,6.36,13.14a1,1,0,0,1-.83,1.13A65,65,0,0,1,246.11,218.05ZM241.25,205H241c-1.13,0-3.48.13-4.12,1-.08.12-.32.46,0,1.36l.24.78c1,3.15,1.83,5.87,4.35,7.26,1.88,1,8.18.61,12.35,0-.73-4.18-2.38-9.49-4.3-10.38l-3,1.72a1,1,0,0,1-1.06,0A10,10,0,0,0,241.25,205Z" fill="#093f68"></path><path d="M249.41,204a38.09,38.09,0,0,1,5.56,12.3,39.94,39.94,0,0,0,15.35-9.3,17.38,17.38,0,0,0,4.16-5.66c2.07-5-1.27-18.9-8.27-13.67-3,2.21-4.5,6.88-7.09,9.62A28,28,0,0,1,249.41,204Z" fill="#68e1fd"></path><path d="M255,217.29a1,1,0,0,1-.48-.12,1,1,0,0,1-.49-.63,36.77,36.77,0,0,0-5.42-12,1,1,0,0,1-.13-.86,1,1,0,0,1,.58-.64,27.16,27.16,0,0,0,9.37-6.47,24,24,0,0,0,2.84-4.11c1.24-2.09,2.53-4.25,4.37-5.63,3-2.26,5.33-1.18,6.42-.32,3.63,2.82,5,11.21,3.37,15.19a18.78,18.78,0,0,1-4.38,6,41.11,41.11,0,0,1-15.74,9.54A1.06,1.06,0,0,1,255,217.29Zm-4.07-12.86A38.71,38.71,0,0,1,255.66,215a39,39,0,0,0,14-8.72,16.29,16.29,0,0,0,3.94-5.33c1.32-3.2.07-10.64-2.76-12.85-1.16-.9-2.47-.78-4,.36s-2.71,3.12-3.86,5a25.1,25.1,0,0,1-3.1,4.46A29.48,29.48,0,0,1,250.9,204.43Z" fill="#093f68"></path><path d="M240.22,206a11.38,11.38,0,0,0,2,6.7c.29.43.72.88,1.24.82s.86-.68,1-1.23a9.59,9.59,0,0,0-.36-3.9,8.33,8.33,0,0,0,3.52,3.92,1.61,1.61,0,0,0,.73.26.65.65,0,0,0,.64-.35" fill="#ffc9b0"></path><path d="M243.38,214.55a2.45,2.45,0,0,1-2-1.25,12.33,12.33,0,0,1-2.19-7.3,1,1,0,0,1,1-1,1,1,0,0,1,1,1,10.35,10.35,0,0,0,1.85,6.11,1.52,1.52,0,0,0,.28.33,1.36,1.36,0,0,0,.12-.36,8.73,8.73,0,0,0-.35-3.48A1,1,0,0,1,245,208a7.37,7.37,0,0,0,3.09,3.44l.16.08a1,1,0,0,1,1.1-.23,1,1,0,0,1,.55,1.3,1.65,1.65,0,0,1-1.62,1,2.62,2.62,0,0,1-1.18-.39,9.28,9.28,0,0,1-1.61-1.16c0,.15,0,.3-.07.45a2.29,2.29,0,0,1-1.83,2Zm4.68-2.68Z" fill="#093f68"></path><polygon points="134.4 220.5 133.86 210.82 91.82 200.76 91.03 220.5 134.4 220.5" fill="#093f68"></polygon><path d="M134.4,221.5H91a1,1,0,0,1-1-1l.79-19.74a1,1,0,0,1,.4-.76,1,1,0,0,1,.83-.17l42.05,10.06a1,1,0,0,1,.76.91l.54,9.68a1.07,1.07,0,0,1-.27.75A1,1,0,0,1,134.4,221.5Zm-42.33-2h41.27l-.43-7.88L92.77,202Z" fill="#093f68"></path><polygon points="221.87 220.5 221.73 209.9 217.74 209.71 217.74 209.52 213.67 209.52 198.36 208.78 198.44 209.52 197.77 209.52 177.54 202.23 175.81 220.5 221.87 220.5" fill="#093f68"></polygon><path d="M221.87,221.5H175.81a1,1,0,0,1-.74-.33,1,1,0,0,1-.26-.76l1.73-18.27a1,1,0,0,1,.46-.75,1,1,0,0,1,.88-.1l19.58,7.05a.81.81,0,0,1,.17-.24,1,1,0,0,1,.78-.31l15.31.73h4a1,1,0,0,1,.64.22l3.41.17a1,1,0,0,1,.95,1l.14,10.6a1,1,0,0,1-1,1Zm-45-2h44l-.12-8.64-3.05-.15a1,1,0,0,1-.55-.19h-3.47l-14.28-.69a1.31,1.31,0,0,1-.21.36,1,1,0,0,1-.74.33h-.67a1,1,0,0,1-.34-.06l-19-6.85Z" fill="#093f68"></path><path d="M188.16,138.59h26.23a12,12,0,0,1,12,12v51.68a0,0,0,0,1,0,0H176.2a0,0,0,0,1,0,0V150.55A12,12,0,0,1,188.16,138.59Z" fill="#68e1fd"></path><path d="M226.35,203.23H176.2a1,1,0,0,1-1-1V150.55a13,13,0,0,1,13-13h26.23a13,13,0,0,1,13,13v51.68A1,1,0,0,1,226.35,203.23Zm-49.15-2h48.15V150.55a11,11,0,0,0-11-11H188.16a11,11,0,0,0-11,11Z" fill="#093f68"></path><path d="M197.87,81.62a7.06,7.06,0,0,1,1.88,3.19c4.1-3.51,10.33-3.87,15.28-1.69s8.69,6.53,11.1,11.37c2.16,4.33,2.66,9.32,2.71,14.09s-1.16,9.22-1.05,14c0,1.68-.16,2-1.82,2.25a33.65,33.65,0,0,1-4.71,0H184.18c-.5,0-8,.32-8.07,0-.29-1,.16-2.2.2-3.2.15-3.47-1-7.34-1.2-10.87-.27-5.46-1.35-10.24.89-15.38a33.09,33.09,0,0,1,10.18-13,11.7,11.7,0,0,1,6.47-2.81A7.21,7.21,0,0,1,197.87,81.62Z" fill="#725858"></path><path d="M178.1,126c-2.73,0-2.79-.24-3-.9a5.67,5.67,0,0,1,0-2.53,7.67,7.67,0,0,0,.13-1,30.86,30.86,0,0,0-.59-6,40.9,40.9,0,0,1-.6-4.77c-.06-1.11-.15-2.19-.24-3.25-.35-4.25-.68-8.27,1.2-12.58a34.1,34.1,0,0,1,10.5-13.43c1.63-1.24,4.14-2.91,7-3a8.14,8.14,0,0,1,5.95,2.4h0a8,8,0,0,1,1.65,2.29,16,16,0,0,1,15.21-1c4.7,2.06,8.82,6.27,11.59,11.84,2.41,4.83,2.77,10.3,2.82,14.52a51.1,51.1,0,0,1-.54,7,50.44,50.44,0,0,0-.51,7c0,2-.33,2.92-2.68,3.26a17.86,17.86,0,0,1-3.35.06c-.51,0-1,0-1.5,0H184.18l-.87,0C180.93,125.9,179.27,126,178.1,126Zm-1-1.45v0Zm-.05-.57q1.49,0,6.24-.1l.93,0h37.08c.51,0,1.05,0,1.59,0a16.35,16.35,0,0,0,3,0c.72-.1.88-.19.91-.22a3.59,3.59,0,0,0,0-1,49.4,49.4,0,0,1,.53-7.28,49.47,49.47,0,0,0,.52-6.69c-.05-4-.38-9.2-2.61-13.66-2.56-5.15-6.33-9-10.6-10.9-4.92-2.17-10.63-1.55-14.23,1.53a1,1,0,0,1-1.62-.51,6,6,0,0,0-1.61-2.73h0a6.32,6.32,0,0,0-4.48-1.83c-2.33.09-4.48,1.53-5.9,2.61a32.07,32.07,0,0,0-9.87,12.64c-1.69,3.85-1.39,7.45-1,11.61.08,1.08.18,2.19.23,3.32a43.26,43.26,0,0,0,.58,4.55,31.92,31.92,0,0,1,.62,6.41,9.93,9.93,0,0,1-.16,1.22A9,9,0,0,0,177,123.93Z" fill="#093f68"></path><path d="M197.63,141.67h7.29a0,0,0,0,1,0,0v4.2a3.1,3.1,0,0,1-3.1,3.1h-1.1a3.1,3.1,0,0,1-3.1-3.1v-4.2A0,0,0,0,1,197.63,141.67Z" fill="#ffc9b0"></path><path d="M201.83,150h-1.1a4.11,4.11,0,0,1-4.1-4.1v-4.19a1,1,0,0,1,1-1h7.29a1,1,0,0,1,1,1v4.19A4.1,4.1,0,0,1,201.83,150Zm-3.2-7.29v3.19a2.1,2.1,0,0,0,2.1,2.1h1.1a2.1,2.1,0,0,0,2.09-2.1v-3.19Z" fill="#093f68"></path><ellipse cx="181.65" cy="122.73" rx="6.67" ry="6.1" fill="#ffc9b0"></ellipse><path d="M181.65,129.83c-4.23,0-7.67-3.18-7.67-7.1a7.69,7.69,0,0,1,15.34,0C189.32,126.65,185.88,129.83,181.65,129.83Zm0-12.21a5.13,5.13,0,1,0,5.67,5.11A5.41,5.41,0,0,0,181.65,117.62Z" fill="#093f68"></path><ellipse cx="220.53" cy="122.73" rx="6.67" ry="6.1" fill="#ffc9b0"></ellipse><path d="M220.53,129.83c-4.23,0-7.67-3.18-7.67-7.1a7.69,7.69,0,0,1,15.34,0C228.2,126.65,224.76,129.83,220.53,129.83Zm0-12.21a5.13,5.13,0,1,0,5.67,5.11A5.41,5.41,0,0,0,220.53,117.62Z" fill="#093f68"></path><path d="M201.28,142.62A21.52,21.52,0,0,1,184.13,134c-4.5-6-4.71-13.26-3.27-20.38,1-4.85,3.67-5,8.31-4.72a27.08,27.08,0,0,1,1.76-7.53,24.17,24.17,0,0,1,1.88,7.37c3.28,0,6.57,0,9.85.14l1.18-6.17a11.29,11.29,0,0,1,1.78,5.94l11.4,1.18,1.12-6a8.16,8.16,0,0,1,1,5.26c4.59-2.18,3.53,2.65,3.53,5.77v6.43A21.36,21.36,0,0,1,201.28,142.62Z" fill="#ffc9b0"></path><path d="M201.28,143.62a22.51,22.51,0,0,1-17.95-9c-4.08-5.49-5.22-12.41-3.45-21.18,1-5.21,4.12-5.75,8.39-5.57A28.26,28.26,0,0,1,190,101a1,1,0,0,1,.92-.64,1,1,0,0,1,.93.61,24.69,24.69,0,0,1,1.85,6.75c2.71,0,5.43,0,8.14.11l1-5.32a1,1,0,0,1,1.82-.35,12.27,12.27,0,0,1,1.9,5.58l9.62,1,1-5.14a1,1,0,0,1,.82-.8,1,1,0,0,1,1,.49,9.08,9.08,0,0,1,1.21,4.31,2.85,2.85,0,0,1,2.23.3c1.47,1,1.36,3.24,1.25,5.42,0,.52-.05,1-.05,1.5v6.43A22.38,22.38,0,0,1,201.28,143.62Zm-14.43-33.8c-3.07,0-4.36.75-5,4-1.65,8.18-.63,14.59,3.1,19.59a20.36,20.36,0,0,0,36.7-12.15v-6.43c0-.5,0-1,.05-1.6.06-1.23.16-3.3-.36-3.65-.07,0-.47-.24-1.79.38a1,1,0,0,1-1-.1,1,1,0,0,1-.38-.58L218,110a1,1,0,0,1-1.08.81l-11.4-1.17a1,1,0,0,1-.9-1,10.22,10.22,0,0,0-.39-2.68l-.59,3.08a1,1,0,0,1-1,.81c-3.25-.14-6.54-.19-9.78-.14a1,1,0,0,1-1-.91,22,22,0,0,0-.84-4.41,27.06,27.06,0,0,0-.81,4.56,1,1,0,0,1-1.06.92C188.26,109.85,187.52,109.82,186.85,109.82Z" fill="#093f68"></path><path d="M199.28,129.38a12.83,12.83,0,0,1-2-.17,1,1,0,0,1,.35-2,9.72,9.72,0,0,0,2.48.09,16,16,0,0,0-1.62-4.18,1,1,0,0,1,.43-1.35,1,1,0,0,1,1.34.42c.9,1.71,2.3,4.79,1.69,6.15a1.43,1.43,0,0,1-1,.82A7.06,7.06,0,0,1,199.28,129.38Z" fill="#093f68"></path><circle cx="207.39" cy="122.21" r="2.16" fill="#093f68"></circle><circle cx="188.32" cy="120.57" r="2.16" fill="#093f68"></circle><path d="M206.42,118.37a2,2,0,0,1,0-4l10.28-.22h.05a2,2,0,0,1,0,4l-10.29.22Z" fill="#093f68"></path><path d="M196,117.78h-.12l-10.27-.57a2,2,0,0,1,.22-4l10.27.56a2,2,0,0,1-.1,4Z" fill="#093f68"></path><path d="M199.14,135.44a10.63,10.63,0,0,1-5.78-1.77,1,1,0,1,1,1.19-1.61,8.06,8.06,0,0,0,10-.79,1,1,0,1,1,1.29,1.53A10.27,10.27,0,0,1,199.14,135.44Z" fill="#093f68"></path><polygon points="306.97 220.5 305.52 201.78 258.69 212.55 258.43 220.5 306.97 220.5" fill="#093f68"></polygon><path d="M307,221.5H258.43a1,1,0,0,1-.72-.31,1,1,0,0,1-.28-.72l.26-7.95a1,1,0,0,1,.77-.94L305.3,200.8a1,1,0,0,1,.81.17,1,1,0,0,1,.41.73L308,220.42a1,1,0,0,1-.26.76A1,1,0,0,1,307,221.5Zm-47.51-2h46.43L304.61,203l-44.95,10.34Z" fill="#093f68"></path><path d="M150.43,101.61A16.24,16.24,0,0,0,149.68,88c-2-4-6-7.94-10.21-6.7a25.82,25.82,0,0,0,1.76,6.58c-3.72-3-8.89-3.52-13.64-3-1.89.21-4,.7-5,2.29s.12,4.38,2,4a17.75,17.75,0,0,0-12.84-.71c-1.35.45-2.82,1.29-3,2.7-.25,1.92,2,3.12,3.81,3.75-3.63-1.82-8.68,1.07-9,5.12l2.78.64c-5.82,6-2.33,15.4.47,22.09.82,1.94,4.79,11.22,7.47,11.51.07,0,14.06,1.48,21.29-7.17,3.95-4.72,6.77-10.43,9.38-16C146.89,109.11,149.12,105.39,150.43,101.61Z" fill="#725858"></path><path d="M116.82,137.44a23.9,23.9,0,0,1-2.62-.12c-2.23-.23-5-4.31-8.29-12.12-2.25-5.36-6.32-15.07-1.37-21.86l-1.18-.28a1,1,0,0,1-.78-1,7.1,7.1,0,0,1,3.73-5.56,8.32,8.32,0,0,1,2.17-.86,3.24,3.24,0,0,1-.74-2.51c.2-1.55,1.5-2.8,3.67-3.51a18.65,18.65,0,0,1,9.8-.51,3.66,3.66,0,0,1,.53-2.4c1.32-2,3.91-2.54,5.74-2.74,3.4-.37,7.94-.32,11.85,1.6a26.37,26.37,0,0,1-.85-4.06,1,1,0,0,1,.71-1.09c4.65-1.36,9.07,2.64,11.38,7.2s2.62,9.11.8,14.36h0a61.45,61.45,0,0,1-3.49,7.66c-.67,1.3-1.36,2.65-2,4-2.63,5.57-5.52,11.41-9.52,16.18C130.72,136.55,121.36,137.44,116.82,137.44Zm-12.1-36.11,1.87.43a1,1,0,0,1,.73.69,1,1,0,0,1-.24,1c-5,5.14-2.63,13.13.67,21,2.94,7,5.58,10.79,6.66,10.9.13,0,13.6,1.34,20.42-6.81,3.84-4.6,6.56-10.07,9.24-15.75.66-1.4,1.35-2.77,2-4.08a60.67,60.67,0,0,0,3.38-7.41h0a15.23,15.23,0,0,0-.69-12.79c-1.79-3.52-4.94-6.68-8.19-6.35a24.35,24.35,0,0,0,1.56,5.4,1,1,0,0,1-.33,1.18,1,1,0,0,1-1.22,0c-3.8-3.06-9.12-3.2-12.91-2.78-1.43.15-3.42.52-4.28,1.84a2,2,0,0,0,.06,1.95c.51.18,1,.38,1.5.61a1,1,0,0,1,.58,1,1,1,0,0,1-.8.87,2.71,2.71,0,0,1-2.47-.79,16.77,16.77,0,0,0-10.25,0c-.65.22-2.19.84-2.32,1.87s1.17,1.86,2.25,2.34a5.53,5.53,0,0,1,1,.4,1,1,0,0,1,.47,1.28,1,1,0,0,1-1.24.56q-.5-.17-.93-.36a5.73,5.73,0,0,0-6.57,3.77Z" fill="#093f68"></path><path d="M132.75,145.88c-5.43.37-10.56-2.26-14.55-5.78-2.06-1.83-5.39-4-4.56-7.14a8.44,8.44,0,0,1,2.21-3.53c.62-.67,1.19-1.34,1.71-2a7.66,7.66,0,0,1-1.3-8.8,5.11,5.11,0,0,1,6.57-2.32c2.64.94,3.56,4.32,4.12,6.75a1.55,1.55,0,0,0,.35.78,1.36,1.36,0,0,0,.76.31,6.1,6.1,0,0,0,2.37,0,1.06,1.06,0,0,0,.63-.32,1,1,0,0,0,.12-.76c-.31-4.26-1.13-8.58-.21-12.75,1.43-6.56,6.32-5,11.5-6.24.69-.17,7.74-1.86,7.72-3l1.47,21.74C152.47,134.74,145,145.05,132.75,145.88Z" fill="#ffc9b0"></path><path d="M131.75,146.91c-4.74,0-9.75-2.12-14.21-6.06l-.92-.78c-2-1.7-4.82-4-3.94-7.36a9.56,9.56,0,0,1,2.43-4q.63-.67,1.14-1.29a8.78,8.78,0,0,1-.88-9.31,6.09,6.09,0,0,1,7.8-2.8c3.31,1.18,4.28,5.43,4.76,7.47,0,.17.07.25.08.29a.69.69,0,0,1,.19,0,5.32,5.32,0,0,0,2,0h0c-.07-1-.17-2-.27-2.91-.33-3.34-.67-6.79.07-10.17,1.23-5.64,5-6.05,8.65-6.44a27.63,27.63,0,0,0,3.6-.56c3.88-.92,6.43-1.87,7-2.34a1,1,0,0,1,2,.22l1.47,21.73c.89,13.2-7.45,23.38-19.84,24.23h0C132.46,146.9,132.11,146.91,131.75,146.91Zm-11-30a3.88,3.88,0,0,0-3.56,2.16,6.59,6.59,0,0,0,1.1,7.61,1,1,0,0,1,.11,1.33c-.51.66-1.09,1.35-1.78,2.1a7.75,7.75,0,0,0-2,3.1c-.52,2,1,3.44,3.3,5.33.33.28.66.55,1,.82,4.38,3.86,9.28,5.83,13.81,5.52h0c11.24-.76,18.8-10,18-22.09l-1.34-19.86A36,36,0,0,1,142.7,105a29.05,29.05,0,0,1-3.85.59c-3.6.39-6,.65-6.91,4.89-.67,3.07-.36,6.21,0,9.54.1,1,.2,1.95.27,2.93a1.78,1.78,0,0,1-1.53,2.13,7.18,7.18,0,0,1-2.77,0,2.22,2.22,0,0,1-1.27-.57,2.53,2.53,0,0,1-.63-1.27c-.63-2.71-1.48-5.32-3.48-6A5.36,5.36,0,0,0,120.71,116.91Z" fill="#093f68"></path><path d="M146,114.2h0l-9,0a2,2,0,1,1,0-4h0l9,0a2,2,0,0,1,0,4Z" fill="#093f68"></path><circle cx="144.1" cy="116.84" r="2.02" fill="#093f68"></circle><path d="M149.48,117.37s5.77,8.69,4.41,9.13a23.64,23.64,0,0,1-4.8.41" fill="#ffc9b0"></path><path d="M149.28,127.91h-.2a1,1,0,0,1,0-2h.19a26.7,26.7,0,0,0,3.73-.24,47,47,0,0,0-4.36-7.75,1,1,0,0,1,1.67-1.1c3.53,5.32,5.11,8.63,4.69,9.82a1.28,1.28,0,0,1-.81.81A21.78,21.78,0,0,1,149.28,127.91Z" fill="#093f68"></path><path d="M145.87,135h0c-.26,0-6.46-.28-9.35-5.43a1,1,0,1,1,1.74-1c2.33,4.16,7.63,4.41,7.68,4.41a1,1,0,0,1,1,1A1,1,0,0,1,145.87,135Z" fill="#093f68"></path><path d="M134.46,210.31l-42.64-9.55,10.51-45.38a19.43,19.43,0,0,1,23.57-14.15l4.51,1.12a19.45,19.45,0,0,1,14.15,23.57Z" fill="#68e1fd"></path><path d="M134.46,211.31a.86.86,0,0,1-.22,0L91.6,201.73a1,1,0,0,1-.63-.44,1,1,0,0,1-.12-.76l10.5-45.38a20.49,20.49,0,0,1,24.79-14.9l4.51,1.13a20.45,20.45,0,0,1,14.88,24.79l-10.09,44.37A1,1,0,0,1,134.46,211.31ZM93,200l40.69,9.12,9.87-43.42a18.47,18.47,0,0,0-13.41-22.38l-4.52-1.12a18.45,18.45,0,0,0-22.35,13.42Z" fill="#093f68"></path><path d="M185.18,195.64a64.07,64.07,0,0,1,10.4,5c5,3.09,9.48,11.83,6.6,11.71s-9.53-2-12.09-2.17c-1.49-.13-9.76-2.15-9.76-2.15Z" fill="#ffc9b0"></path><path d="M202.24,213.34h-.1a51.58,51.58,0,0,1-7-1.22c-2.06-.44-4-.85-5.08-.94-1.53-.14-9.07-2-9.92-2.17a1,1,0,0,1-.65-.51,1,1,0,0,1-.05-.83l4.86-12.39a1,1,0,0,1,1.27-.57,63.2,63.2,0,0,1,10.58,5.08c4.21,2.58,8.71,9.58,7.88,12.29A1.73,1.73,0,0,1,202.24,213.34Zm-20.57-6c3.27.78,7.58,1.77,8.51,1.85a53.49,53.49,0,0,1,5.32,1,56.41,56.41,0,0,0,6.61,1.17c.15-1.48-3-7.36-7.05-9.84a63.2,63.2,0,0,0-9.31-4.57Z" fill="#093f68"></path><path d="M262.82,145.6H264a4.35,4.35,0,0,1,4.35,4.35v6.21a0,0,0,0,1,0,0h-9.89a0,0,0,0,1,0,0V150A4.35,4.35,0,0,1,262.82,145.6Z" transform="translate(529.99 296.09) rotate(178.77)" fill="#ffc9b0"></path><path d="M262.84,157.18a5.36,5.36,0,0,1-5.35-5.24l-.14-6.21a1,1,0,0,1,1-1l9.89-.21a1,1,0,0,1,1,1l.13,6.21a5.36,5.36,0,0,1-5.24,5.46l-1.18,0Zm-3.47-10.49.12,5.21a3.35,3.35,0,0,0,3.35,3.28h.07l1.18,0a3.35,3.35,0,0,0,3.28-3.42l-.11-5.21Z" fill="#093f68"></path><path d="M262.58,147.43c5.95,1.47,12.17-.45,17.27-3.56,2.65-1.62,6.77-3.37,6.46-7a9.62,9.62,0,0,0-1.75-4.34c-1.94-3-4.14-6.45-5-10-1.05-4.41.83-8.92-.89-13.37-2.94-7.56-13.45-8.69-20.38-9.59a14.22,14.22,0,0,0-5.12,0c-4.29,1-4,6.11-4.89,9.66L246.11,118C242.86,131.22,249.18,144.12,262.58,147.43Z" fill="#ffc9b0"></path><path d="M266.77,148.92a18.46,18.46,0,0,1-4.43-.52h0a23.18,23.18,0,0,1-15.12-11.49,26.75,26.75,0,0,1-2.08-19.11l2.19-8.84c.17-.71.3-1.5.43-2.33.52-3.16,1.17-7.1,5.19-8.06a15.1,15.1,0,0,1,5.49,0l.66.08c6.95.9,17.46,2.26,20.52,10.14,1,2.66.88,5.28.73,7.82a19.15,19.15,0,0,0,.21,5.68c.77,3.24,2.81,6.53,4.83,9.63a10.62,10.62,0,0,1,1.92,4.81c.32,3.8-3.22,5.82-5.8,7.3l-1.14.67A26.43,26.43,0,0,1,266.77,148.92Zm-11.52-48.6a7.9,7.9,0,0,0-1.83.19c-2.54.61-3.11,2.95-3.68,6.45-.14.83-.28,1.69-.47,2.47l-2.19,8.85A24.73,24.73,0,0,0,249,136a21.18,21.18,0,0,0,13.84,10.5h0c5,1.23,10.85,0,16.5-3.45.38-.22.78-.46,1.2-.69,2.93-1.69,5-3.06,4.8-5.4a8.94,8.94,0,0,0-1.6-3.89c-2.12-3.24-4.26-6.71-5.11-10.26a21,21,0,0,1-.26-6.26c.14-2.43.28-4.72-.6-7-2.62-6.78-12-8-18.91-8.88l-.66-.09A24.13,24.13,0,0,0,255.25,100.32Z" fill="#093f68"></path><path d="M249.4,116.45s-8.1,8.52-6.68,9.27a26.16,26.16,0,0,0,5.25,1.39" fill="#ffc9b0"></path><path d="M248,128.11h-.16a25.32,25.32,0,0,1-5.55-1.5,1.27,1.27,0,0,1-.68-.95c-.28-1.71,3.7-6.32,7.09-9.89a1,1,0,0,1,1.42,0,1,1,0,0,1,0,1.41c-2.77,2.91-5.78,6.53-6.44,7.91a30.23,30.23,0,0,0,4.46,1.08,1,1,0,0,1-.17,2Z" fill="#093f68"></path><path d="M277.52,117s6.83-2.6,8.69,3.37-3.36,14.08-12.36,9.12" fill="#ffc9b0"></path><path d="M279.16,132a12.13,12.13,0,0,1-5.8-1.65,1,1,0,0,1,1-1.75c3.37,1.85,6.44,1.88,8.65.08a7.73,7.73,0,0,0,2.27-8,4.25,4.25,0,0,0-2.16-2.76c-2.22-1.08-5.18,0-5.21,0a1,1,0,0,1-1.29-.58,1,1,0,0,1,.58-1.29c.15,0,3.79-1.41,6.78,0a6.2,6.2,0,0,1,3.21,4,9.65,9.65,0,0,1-2.92,10.17A7.83,7.83,0,0,1,279.16,132Z" fill="#093f68"></path><path d="M253,111.06a2,2,0,0,1-.05-4l10.15-.25a2,2,0,0,1,.11,4l-10.16.26Z" fill="#093f68"></path><circle cx="255.42" cy="115.32" r="2.39" fill="#093f68"></circle><path d="M252.8,135.49a7.74,7.74,0,0,1-2-.23,1,1,0,0,1,.55-1.92h0c.23.07,5.62,1.49,7.92-5.17a1,1,0,1,1,1.89.65C259.19,134.55,255.21,135.49,252.8,135.49Z" fill="#093f68"></path><path d="M258.69,212.55l46.83-10.77-13.34-42.7a20.12,20.12,0,0,0-23.94-15.36l-4.71,1a20.12,20.12,0,0,0-15.36,23.94Z" fill="#68e1fd"></path><path d="M258.69,213.55a1,1,0,0,1-1-.76L247.2,168.93a21.15,21.15,0,0,1,16.12-25.16l4.7-1a21.11,21.11,0,0,1,25.14,16.12l13.32,42.61a1,1,0,0,1-.74,1.27l-46.83,10.78Zm13.88-69.3a19.25,19.25,0,0,0-4.12.45l-4.7,1a19.14,19.14,0,0,0-14.6,22.76l10.28,42.88L304.24,201l-13-41.66a19.14,19.14,0,0,0-18.66-15.13Z" fill="#093f68"></path><path d="M255.66,155.58S229,185.48,210.18,198l5.1,12.82S253,194.78,262.6,174.41" fill="#68e1fd"></path><path d="M215.28,211.85a1.09,1.09,0,0,1-.39-.08,1,1,0,0,1-.54-.55l-5.1-12.82a1,1,0,0,1,.38-1.2c18.5-12.34,45-42,45.28-42.28a1,1,0,1,1,1.49,1.33c-.26.29-26.31,29.42-45,42.16l4.41,11.1c5.86-2.64,37.34-17.51,45.87-35.53a1,1,0,0,1,1.34-.47,1,1,0,0,1,.47,1.33c-4.08,8.62-13.39,17.47-27.65,26.28a170.5,170.5,0,0,1-20.18,10.65A1,1,0,0,1,215.28,211.85Z" fill="#093f68"></path><path d="M271.73,88.44c3.88.51,7.89-.33,11.6,1.37,11.81,5.4,16.14,23,18,34.58.76,4.7,1.13,9.57-.09,14.17a23.14,23.14,0,0,1-13.12,14.91,27.46,27.46,0,0,1-20.06.42,13.16,13.16,0,0,1-5.22-3.09c-3.18-3.34-3.08-8.71-1.42-13s4.62-8,6.75-12a25.92,25.92,0,0,0,2.7-13.93c-.58-5.29-4-6.4-8.7-6.92-1.25-.14-7.46-4.68-6.57-6-1.11,1.63-3.22,2.16-5.15,2.58-.18,0-.44,0-.49-.15a.43.43,0,0,1,0-.16C251.76,92.14,263.52,87.37,271.73,88.44Z" fill="#725858"></path><path d="M277.72,156.58a29.59,29.59,0,0,1-10-1.75,14.43,14.43,0,0,1-5.61-3.34c-3.71-3.9-3.19-10-1.62-14.06a45.37,45.37,0,0,1,4.09-7.56c.93-1.49,1.89-3,2.71-4.58a25.07,25.07,0,0,0,2.59-13.36c-.49-4.42-3-5.5-7.82-6-1.29-.14-5.4-3-6.92-5.1a11.92,11.92,0,0,1-4.48,1.67,1.3,1.3,0,0,1-1.66-.85,1.35,1.35,0,0,1,0-.63c2-10,14.66-14.6,22.87-13.53h0a33.85,33.85,0,0,0,3.94.2c2.62,0,5.33,0,7.95,1.25,9.24,4.23,15.49,16.11,18.57,35.33.66,4.1,1.24,9.46-.11,14.58a24,24,0,0,1-13.69,15.58A27,27,0,0,1,277.72,156.58ZM256.54,99.27c.4,1.12,4.65,4.41,5.76,4.64,4.25.47,8.87,1.5,9.56,7.8a26.62,26.62,0,0,1-2.8,14.5c-.85,1.63-1.83,3.2-2.78,4.72a43.17,43.17,0,0,0-3.93,7.22c-1.35,3.5-1.85,8.74,1.21,12A12.09,12.09,0,0,0,268.4,153a26.41,26.41,0,0,0,19.32-.39,22.32,22.32,0,0,0,12.55-14.26c1.26-4.76.7-9.85.08-13.75-3-18.52-8.84-29.9-17.43-33.83-2.23-1-4.62-1-7.14-1.07a34.86,34.86,0,0,1-4.18-.22h0c-7-.91-17.94,2.89-20.38,10.86a5.83,5.83,0,0,0,3.56-1.94h0a1,1,0,0,1,1.76.92Z" fill="#093f68"></path><path d="M211,197.88a99.32,99.32,0,0,0-12.7,3.72c-6.41,2.36-11.66,6.31-8.13,9.82,1.76,1.76,6.55-.89,12.09-1.15s10,1.17,13.05.58Z" fill="#ffc9b0"></path><path d="M191.94,213a3.37,3.37,0,0,1-2.51-.89,4.14,4.14,0,0,1-1.34-3.93c.85-3.85,7.16-6.56,9.84-7.54a101.63,101.63,0,0,1,12.84-3.76,1,1,0,0,1,1.15.67l4.31,13a1,1,0,0,1-.09.82,1,1,0,0,1-.67.48,20.59,20.59,0,0,1-5.95-.16,43,43,0,0,0-7.24-.4,32.59,32.59,0,0,0-6.1,1A20.07,20.07,0,0,1,191.94,213Zm18.37-14a101.12,101.12,0,0,0-11.69,3.49c-4.78,1.75-8.15,4.15-8.57,6.09a2.19,2.19,0,0,0,.79,2.08c.65.65,2.7.16,4.88-.36a35.07,35.07,0,0,1,6.46-1.08,45.4,45.4,0,0,1,7.57.41,30.74,30.74,0,0,0,4.19.31Z" fill="#093f68"></path><path d="M142.54,151.51s20.3,29.59,42.64,44.13L180,208.37s-33.76-10.74-49.9-39.42" fill="#68e1fd"></path><path d="M180,209.37a1.12,1.12,0,0,1-.31-.05c-.34-.11-34.31-11.18-50.46-39.88a1,1,0,1,1,1.74-1c14.33,25.46,43.08,36.73,48.46,38.65L184,196c-22-14.63-42-43.65-42.24-43.94a1,1,0,0,1,1.65-1.13c.2.29,20.45,29.59,42.37,43.85a1,1,0,0,1,.38,1.21L181,208.74A1,1,0,0,1,180,209.37Z" fill="#093f68"></path><path d="M192,197.12c2.37,2.18,3.1,6,4.5,8.84a13.67,13.67,0,0,0,2.65,4.2,5.19,5.19,0,0,0,6.35.32,4.69,4.69,0,0,0,1.45-1.24,5.23,5.23,0,0,0,.7-2.92,24.57,24.57,0,0,0-1-7.57,2.41,2.41,0,0,0,2,.81,3.55,3.55,0,0,0-1-3,19.48,19.48,0,0,0-3.92-3.88c-.88-.57-2.65-2-3.66-2.24-3.4-.81-5.45,1.55-8.73,2.6S191.89,197,192,197.12Z" fill="#ffc9b0"></path><path d="M202.4,212.41a5.63,5.63,0,0,1-3.9-1.52,13.45,13.45,0,0,1-2.69-4.12l-.18-.37c-.46-.94-.85-2-1.23-3-.78-2.08-1.59-4.23-3-5.56q-2.64-2.24-2.29-4a2.44,2.44,0,0,1,1.91-1.81,18.69,18.69,0,0,0,2.83-1.27c1.87-1,3.81-2,6.43-1.35a10.46,10.46,0,0,1,3.15,1.8l.82.57a20.26,20.26,0,0,1,4.17,4.11c.73.94,1.66,2.37,1.18,3.92a1,1,0,0,1-.89.71,3.13,3.13,0,0,1-.53,0,25.54,25.54,0,0,1,.54,5.79,6.12,6.12,0,0,1-.88,3.47,5.66,5.66,0,0,1-1.75,1.53A7.17,7.17,0,0,1,202.4,212.41Zm-3.76-21.16a8.57,8.57,0,0,0-3.91,1.33,19,19,0,0,1-3.15,1.39c-.41.13-.54.27-.55.3s.25.91,1.6,2l.07.07c1.81,1.65,2.71,4,3.58,6.33a29.58,29.58,0,0,0,1.15,2.8l.18.37a11.6,11.6,0,0,0,2.25,3.54,4.2,4.2,0,0,0,5.15.19,3.43,3.43,0,0,0,1.15-1,4.27,4.27,0,0,0,.52-2.36,23.79,23.79,0,0,0-1-7.26,1,1,0,0,1,1.71-.95l0,0a5.72,5.72,0,0,0-.64-1,18.43,18.43,0,0,0-3.67-3.66c-.24-.16-.56-.38-.9-.63a11.61,11.61,0,0,0-2.45-1.48A5.22,5.22,0,0,0,198.64,191.25Z" fill="#093f68"></path><path d="M218.51,190.55h0a1,1,0,0,1-1-1c.34-11.56.68-30.45.14-32.45a1,1,0,0,1,1.57-1.22c.37.38,1.25,1.26.29,33.73A1,1,0,0,1,218.51,190.55Zm-.71-33.29Z" fill="#093f68"></path><path d="M179.34,142.2S166.63,159.64,166,173.05s26,24.07,26,24.07-.17-1.62,3.85-4.63,5.39-1.9,5.39-1.9-17.69-7.43-18.75-17.54c-.87-8.35,6.46-21.54,6.46-21.54" fill="#68e1fd"></path><path d="M192.09,198.14a1.12,1.12,0,0,1-.44-.09c-1.11-.44-27.25-11.08-26.62-25,.61-13.56,13-30.68,13.5-31.4a1,1,0,0,1,1.4-.22,1,1,0,0,1,.22,1.4C180,143,167.61,160.14,167,173.1c-.51,11.12,19.6,20.59,24.36,22.67a12.59,12.59,0,0,1,3.89-4.08,15.37,15.37,0,0,1,2.57-1.61c-5.24-2.69-15.48-8.92-16.32-16.92-.9-8.57,6.27-21.58,6.58-22.13a1,1,0,0,1,1.36-.39,1,1,0,0,1,.38,1.36c-.07.13-7.17,13-6.33,20.95.89,8.55,15.06,15.33,17.71,16.53a1.79,1.79,0,0,1,.67.33,1,1,0,0,1,.23,1.29,1,1,0,0,1-1.25.41l-.26-.11c-.47-.08-1.8.13-4.14,1.89-3.3,2.47-3.46,3.81-3.46,3.83a.91.91,0,0,1-.39.85A.89.89,0,0,1,192.09,198.14Z" fill="#093f68"></path></g></svg>